{"glyphs":{"0":{"ha":842,"x_min":82,"x_max":760,"o":"m 672 108 q 627 45 672 108 q 421 -17 583 -17 q 170 108 258 -17 q 82 486 82 232 q 170 865 82 740 q 421 989 258 989 q 672 865 583 989 q 760 486 760 740 q 672 108 760 232 m 193 486 q 193 314 193 486 q 421 142 193 142 q 649 486 649 142 q 421 831 649 831 q 193 486 193 831 z "},"1":{"ha":629,"x_min":21,"x_max":496,"o":"m 381 0 l 381 804 l 310 804 l 150 542 l 21 542 l 21 549 l 279 972 l 496 972 l 496 0 l 381 0 z "},"2":{"ha":779,"x_min":75,"x_max":700,"o":"m 75 0 l 75 133 l 406 468 q 459 520 424 486 q 509 569 494 554 q 543 608 524 585 q 569 651 563 632 q 576 692 576 671 q 379 831 576 831 q 186 692 186 831 l 75 692 q 166 910 75 835 q 389 985 257 985 q 611 919 526 985 q 696 726 696 853 q 661 588 696 649 q 551 453 626 528 l 303 206 l 303 151 l 700 151 l 700 0 l 75 0 z "},"3":{"ha":785,"x_min":67,"x_max":703,"o":"m 386 -10 q 157 66 247 -10 q 67 281 67 142 l 178 281 q 238 189 178 225 q 382 153 297 153 q 590 296 590 153 q 540 398 590 358 q 400 438 490 438 l 232 438 l 232 557 l 386 557 q 532 592 488 557 q 576 694 576 626 q 521 797 576 761 q 386 833 465 833 q 253 799 308 833 q 199 694 199 764 l 88 694 q 177 913 88 838 q 392 988 267 988 q 603 919 518 988 q 689 719 689 850 q 653 601 689 653 q 553 529 617 550 l 553 479 q 663 404 622 463 q 703 268 703 346 q 608 65 703 139 q 386 -10 514 -10 z "},"4":{"ha":814,"x_min":43,"x_max":765,"o":"m 500 0 l 500 251 l 43 251 l 43 390 l 446 972 l 614 972 l 614 404 l 765 404 l 765 251 l 614 251 l 614 0 l 500 0 m 204 400 l 503 400 l 503 806 l 457 806 l 204 446 l 204 400 z "},"5":{"ha":813,"x_min":79,"x_max":743,"o":"m 406 -17 q 173 57 267 -17 q 79 261 79 131 l 190 261 q 422 153 224 153 q 639 325 639 153 q 583 461 639 422 q 422 500 528 500 q 231 411 265 500 l 86 411 l 139 972 l 692 972 l 692 821 l 229 821 l 200 522 l 256 522 q 479 643 317 643 q 669 564 594 643 q 743 324 743 485 q 645 69 743 154 q 406 -17 547 -17 z "},"6":{"ha":838,"x_min":86,"x_max":756,"o":"m 419 -15 q 170 93 254 -15 q 86 396 86 201 l 86 481 q 172 867 86 746 q 444 989 257 989 q 660 910 572 989 q 747 694 747 832 l 619 694 q 431 833 619 833 q 240 756 293 833 q 186 494 186 679 l 242 494 q 330 583 271 551 q 467 615 389 615 q 683 534 610 615 q 756 299 756 453 q 665 65 756 144 q 419 -15 575 -15 m 425 153 q 651 313 651 153 q 425 476 651 476 q 203 313 203 476 q 425 153 203 153 z "},"7":{"ha":731,"x_min":42,"x_max":689,"o":"m 121 0 l 544 779 l 544 819 l 42 819 l 42 972 l 689 972 l 689 793 l 263 0 l 121 0 z "},"8":{"ha":839,"x_min":75,"x_max":764,"o":"m 668 58 q 620 20 668 58 q 419 -18 572 -18 q 171 58 267 -18 q 75 272 75 133 q 116 398 75 338 q 243 479 157 458 l 243 529 q 143 602 179 547 q 107 731 107 657 q 192 915 107 842 q 419 988 276 988 q 647 915 563 988 q 732 731 732 842 q 696 602 732 657 q 596 529 660 547 l 596 479 q 723 398 682 458 q 764 272 764 338 q 668 58 764 133 m 282 598 q 309 581 282 598 q 419 564 336 564 q 557 598 503 564 q 611 693 611 632 q 558 799 611 764 q 419 833 506 833 q 281 799 333 833 q 228 693 228 764 q 282 598 228 632 m 260 190 q 288 171 260 190 q 419 153 315 153 q 579 190 524 153 q 635 292 635 226 q 579 394 635 357 q 419 432 524 432 q 260 394 315 432 q 204 292 204 357 q 260 190 204 226 z "},"9":{"ha":839,"x_min":83,"x_max":753,"o":"m 394 -15 q 174 63 263 -15 q 86 279 86 142 l 214 279 q 264 186 214 219 q 408 153 314 153 q 599 228 546 153 q 653 479 653 304 l 597 479 q 509 390 568 422 q 372 358 450 358 q 156 440 229 358 q 83 675 83 521 q 174 909 83 829 q 419 989 264 989 q 753 578 753 989 l 753 507 q 669 104 753 224 q 394 -15 586 -15 m 418 501 q 585 544 526 501 q 644 671 644 588 q 418 833 644 833 q 188 671 188 833 q 248 544 188 588 q 418 501 308 501 z "},"\r":{"ha":347,"x_min":0,"x_max":0,"o":""}," ":{"ha":347,"x_min":0,"x_max":0,"o":""},",":{"ha":388,"x_min":99,"x_max":289,"o":"m 203 -167 l 203 0 l 99 0 l 99 190 l 289 190 l 289 -167 l 203 -167 z "},"-":{"ha":661,"x_min":94,"x_max":567,"o":"m 94 288 l 94 413 l 567 413 l 567 288 l 94 288 z "},".":{"ha":382,"x_min":96,"x_max":286,"o":"m 96 0 l 96 190 l 286 190 l 286 0 l 96 0 z "},"/":{"ha":543,"x_min":44,"x_max":499,"o":"m 44 -196 l 390 1019 l 499 1019 l 153 -196 l 44 -196 z "},"A":{"ha":919,"x_min":14,"x_max":906,"o":"m 14 0 l 403 972 l 517 972 l 906 0 l 778 0 l 686 238 l 233 238 l 142 0 l 14 0 m 293 390 l 626 390 l 497 724 l 497 767 l 422 767 l 422 725 l 293 390 z "},"B":{"ha":915,"x_min":133,"x_max":838,"o":"m 133 0 l 133 972 l 538 972 q 738 910 669 972 q 807 732 807 849 q 772 610 807 668 q 682 535 736 553 l 682 490 q 838 260 838 454 q 755 67 838 135 q 525 0 672 0 l 133 0 m 246 578 l 549 578 q 658 610 622 578 q 694 699 694 643 q 660 786 694 753 q 556 819 625 819 l 246 819 l 246 578 m 246 153 l 558 153 q 725 289 725 153 q 558 425 725 425 l 246 425 l 246 153 z "},"C":{"ha":985,"x_min":74,"x_max":932,"o":"m 540 -17 q 202 124 331 -17 q 74 493 74 265 q 201 853 74 717 q 536 989 328 989 q 796 911 693 989 q 926 694 899 833 l 793 694 q 538 819 749 819 q 272 738 358 819 q 186 486 186 656 q 273 233 186 314 q 546 153 360 153 q 718 183 658 153 q 799 282 778 214 l 932 282 q 800 63 904 142 q 540 -17 696 -17 z "},"D":{"ha":1021,"x_min":133,"x_max":947,"o":"m 133 0 l 133 972 l 451 972 q 813 843 679 972 q 947 492 947 714 q 813 134 947 268 q 457 0 679 0 l 133 0 m 246 153 l 457 153 q 742 236 649 153 q 835 492 835 319 q 741 740 835 660 q 451 819 647 819 l 246 819 l 246 153 z "},"E":{"ha":817,"x_min":133,"x_max":728,"o":"m 133 0 l 133 972 l 728 972 l 728 819 l 246 819 l 246 558 l 700 558 l 700 414 l 246 414 l 246 153 l 728 153 l 728 0 l 133 0 z "},"F":{"ha":817,"x_min":133,"x_max":757,"o":"m 133 0 l 133 972 l 757 972 l 757 819 l 246 819 l 246 560 l 728 560 l 728 413 l 246 413 l 246 0 l 133 0 z "},"G":{"ha":1040,"x_min":75,"x_max":958,"o":"m 536 -17 q 200 119 325 -17 q 75 482 75 254 q 201 852 75 715 q 542 989 326 989 q 813 910 706 989 q 946 694 921 832 l 813 694 q 544 819 779 819 q 274 738 361 819 q 188 486 188 657 q 272 235 188 317 q 531 153 357 153 q 764 212 679 153 q 849 374 849 271 l 849 407 l 450 407 l 450 551 l 958 551 l 958 374 q 839 94 958 204 q 536 -17 719 -17 z "},"H":{"ha":1050,"x_min":133,"x_max":917,"o":"m 133 0 l 133 972 l 246 972 l 246 561 l 804 561 l 804 972 l 917 972 l 917 0 l 804 0 l 804 411 l 246 411 l 246 0 l 133 0 z "},"I":{"ha":379,"x_min":133,"x_max":246,"o":"m 133 0 l 133 972 l 246 972 l 246 0 l 133 0 z "},"J":{"ha":771,"x_min":35,"x_max":646,"o":"m 565 69 q 525 26 565 69 q 339 -17 485 -17 q 114 68 193 -17 q 35 310 35 153 l 147 310 q 339 153 158 153 q 533 324 533 153 l 533 972 l 646 972 l 646 310 q 565 69 646 154 z "},"K":{"ha":860,"x_min":133,"x_max":871,"o":"m 133 0 l 133 972 l 246 972 l 246 560 l 321 560 l 321 601 l 647 972 l 813 972 l 397 510 l 397 463 l 871 0 l 690 0 l 321 371 l 321 413 l 246 413 l 246 0 l 133 0 z "},"L":{"ha":707,"x_min":133,"x_max":679,"o":"m 133 0 l 133 972 l 247 972 l 247 153 l 679 153 l 679 0 l 133 0 z "},"M":{"ha":1246,"x_min":133,"x_max":1113,"o":"m 133 0 l 133 972 l 365 972 l 585 236 l 585 194 l 660 194 l 660 236 l 878 972 l 1113 972 l 1113 0 l 1000 0 l 1000 781 l 924 781 l 924 739 l 713 0 l 532 0 l 321 739 l 321 781 l 246 781 l 246 0 l 133 0 z "},"N":{"ha":1011,"x_min":133,"x_max":878,"o":"m 133 0 l 133 972 l 357 972 l 694 236 l 694 194 l 765 194 l 765 972 l 878 972 l 878 0 l 654 0 l 321 739 l 321 781 l 246 781 l 246 0 l 133 0 z "},"O":{"ha":1119,"x_min":75,"x_max":1044,"o":"m 916 116 q 852 50 916 116 q 560 -17 788 -17 q 203 116 332 -17 q 75 486 75 249 q 203 856 75 724 q 560 989 332 989 q 916 856 788 989 q 1044 486 1044 724 q 916 116 1044 249 m 279 235 q 325 194 279 235 q 560 153 371 153 q 840 235 749 153 q 932 486 932 317 q 840 738 932 656 q 560 819 749 819 q 279 738 371 819 q 188 486 188 656 q 279 235 188 317 z "},"P":{"ha":842,"x_min":133,"x_max":797,"o":"m 133 0 l 133 972 l 506 972 q 716 891 635 972 q 797 682 797 810 q 715 474 797 556 q 506 392 632 392 l 246 392 l 246 0 l 133 0 m 246 544 l 518 544 q 645 577 606 544 q 685 682 685 610 q 645 787 685 754 q 518 819 606 819 l 246 819 l 246 544 z "},"Q":{"ha":1119,"x_min":75,"x_max":1044,"o":"m 1044 486 q 926 128 1044 260 q 597 -15 808 -4 l 597 -68 l 818 -68 l 818 -219 l 686 -219 q 485 -42 485 -219 l 485 -12 q 183 140 290 10 q 75 486 75 269 q 203 856 75 724 q 560 989 332 989 q 916 856 788 989 q 1044 486 1044 724 m 279 738 q 233 697 279 738 q 188 486 188 656 q 279 235 188 317 q 560 153 371 153 q 840 235 749 153 q 932 486 932 317 q 840 738 932 656 q 560 819 749 819 q 279 738 371 819 z "},"R":{"ha":892,"x_min":133,"x_max":794,"o":"m 133 0 l 133 972 l 518 972 q 723 906 651 972 q 794 717 794 840 q 752 576 794 639 q 644 496 710 514 l 644 454 q 792 244 792 419 l 792 0 l 674 0 l 674 249 q 628 363 674 321 q 503 404 582 404 l 246 404 l 246 0 l 133 0 m 246 544 l 494 544 q 672 682 672 544 q 633 787 672 754 q 506 819 593 819 l 246 819 l 246 544 z "},"S":{"ha":885,"x_min":69,"x_max":818,"o":"m 713 60 q 660 22 713 60 q 438 -17 607 -17 q 169 63 268 -17 q 69 282 69 143 l 199 282 q 267 180 199 218 q 444 142 335 142 q 692 264 692 142 q 651 342 692 313 q 510 396 611 371 l 376 429 q 156 536 228 467 q 83 711 83 606 q 185 912 83 835 q 447 989 288 989 q 696 906 599 989 q 793 694 793 824 l 669 694 q 606 796 669 758 q 433 833 543 833 q 272 800 333 833 q 210 713 210 767 q 251 635 210 663 q 413 576 293 607 l 546 543 q 754 440 690 507 q 818 258 818 374 q 713 60 818 136 z "},"T":{"ha":829,"x_min":22,"x_max":807,"o":"m 358 0 l 358 819 l 22 819 l 22 972 l 807 972 l 807 819 l 471 819 l 471 0 l 358 0 z "},"U":{"ha":1000,"x_min":124,"x_max":876,"o":"m 772 74 q 720 28 772 74 q 500 -17 668 -17 q 228 74 332 -17 q 124 310 124 164 l 124 972 l 236 972 l 236 324 q 500 153 236 153 q 764 324 764 153 l 764 972 l 876 972 l 876 310 q 772 74 876 164 z "},"V":{"ha":888,"x_min":24,"x_max":864,"o":"m 369 0 l 24 972 l 168 972 l 407 236 l 407 194 l 482 194 l 482 236 l 719 972 l 864 972 l 518 0 l 369 0 z "},"W":{"ha":1347,"x_min":31,"x_max":1317,"o":"m 299 0 l 31 972 l 168 972 l 350 236 l 350 194 l 424 194 l 424 236 l 575 972 l 772 972 l 924 236 l 924 194 l 997 194 l 997 236 l 1179 972 l 1317 972 l 1049 0 l 861 0 l 713 739 l 713 781 l 635 781 l 635 739 l 486 0 l 299 0 z "},"X":{"ha":849,"x_min":32,"x_max":817,"o":"m 32 0 l 307 469 l 307 511 l 32 972 l 174 972 l 386 604 l 386 563 l 460 563 l 460 604 l 675 972 l 817 972 l 543 510 l 543 468 l 817 0 l 675 0 l 461 375 l 461 417 l 386 417 l 386 375 l 174 0 l 32 0 z "},"Y":{"ha":842,"x_min":22,"x_max":819,"o":"m 363 0 l 363 394 l 22 972 l 168 972 l 382 601 l 382 560 l 460 560 l 460 601 l 674 972 l 819 972 l 479 394 l 479 0 l 363 0 z "},"Z":{"ha":879,"x_min":67,"x_max":817,"o":"m 67 0 l 67 150 l 626 781 l 626 822 l 81 822 l 81 972 l 803 972 l 803 822 l 243 192 l 243 150 l 817 150 l 817 0 l 67 0 z "},"a":{"ha":774,"x_min":67,"x_max":674,"o":"m 315 -19 q 137 43 207 -19 q 67 203 67 106 q 136 358 67 297 q 315 418 206 418 q 433 393 381 418 q 510 326 486 368 l 565 326 l 565 414 q 518 533 565 494 q 372 571 471 571 q 260 547 307 571 q 200 482 214 524 l 86 482 q 178 650 97 588 q 386 713 260 713 q 597 650 519 713 q 674 481 674 588 l 674 0 l 565 0 l 565 83 l 510 83 q 435 8 488 36 q 315 -19 382 -19 m 175 206 q 369 110 175 110 q 564 206 564 110 q 369 300 564 300 q 175 206 175 300 z "},"b":{"ha":856,"x_min":111,"x_max":786,"o":"m 489 -17 q 279 107 346 -17 l 222 107 l 222 0 l 111 0 l 111 972 l 222 972 l 222 585 l 279 585 q 489 711 347 711 q 707 614 628 711 q 786 347 786 517 q 707 81 786 178 q 489 -17 628 -17 m 446 125 q 624 179 567 125 q 682 347 682 233 q 624 515 682 461 q 446 569 567 569 q 288 522 351 569 q 224 403 224 474 l 224 292 q 288 173 224 221 q 446 125 351 125 z "},"c":{"ha":744,"x_min":68,"x_max":688,"o":"m 392 -17 q 156 83 244 -17 q 68 347 68 182 q 158 609 68 508 q 392 710 247 710 q 588 651 511 710 q 688 482 665 592 l 576 482 q 392 568 544 568 q 229 510 286 568 q 172 347 172 453 q 231 184 172 243 q 392 125 289 125 q 576 238 547 125 l 688 238 q 590 51 668 118 q 392 -17 511 -17 z "},"d":{"ha":856,"x_min":69,"x_max":744,"o":"m 367 -17 q 149 81 228 -17 q 69 347 69 178 q 149 614 69 517 q 367 711 228 711 q 576 585 508 711 l 633 585 l 633 972 l 744 972 l 744 0 l 633 0 l 633 107 l 576 107 q 367 -17 510 -17 m 410 125 q 568 173 504 125 q 632 292 632 221 l 632 403 q 568 522 632 474 q 410 569 504 569 q 231 515 289 569 q 174 347 174 461 q 231 179 174 233 q 410 125 289 125 z "},"e":{"ha":764,"x_min":68,"x_max":692,"o":"m 400 -15 q 158 82 247 -15 q 68 343 68 179 q 158 610 68 510 q 396 710 247 710 q 612 626 532 710 q 692 399 692 542 q 685 306 692 351 l 175 306 q 241 166 182 214 q 403 118 300 118 q 579 208 546 118 l 690 208 q 589 42 664 100 q 400 -15 514 -15 m 182 431 l 583 431 q 527 538 581 499 q 383 576 474 576 q 182 431 208 576 z "},"f":{"ha":465,"x_min":50,"x_max":447,"o":"m 161 0 l 161 542 l 50 542 l 50 694 l 161 694 l 161 725 q 182 843 161 792 q 233 922 203 894 q 304 967 264 950 q 379 988 344 983 q 447 990 414 992 l 447 831 q 308 800 340 831 q 275 711 275 769 l 275 694 l 426 694 l 426 542 l 275 542 l 275 0 l 161 0 z "},"g":{"ha":854,"x_min":71,"x_max":746,"o":"m 425 -281 q 197 -217 278 -281 q 104 -29 115 -153 l 215 -29 q 278 -120 229 -93 q 425 -147 326 -147 q 635 54 635 -147 l 635 154 l 578 154 q 368 31 511 31 q 152 123 233 31 q 71 369 71 215 q 152 616 71 524 q 368 708 233 708 q 578 582 510 708 l 635 582 l 635 692 l 746 692 l 746 68 q 660 -187 746 -94 q 425 -281 575 -281 m 411 172 q 569 220 506 172 q 633 339 633 268 l 633 400 q 569 519 633 471 q 411 567 506 567 q 175 369 175 567 q 411 172 175 172 z "},"h":{"ha":815,"x_min":111,"x_max":711,"o":"m 111 0 l 111 972 l 222 972 l 222 585 l 278 585 q 496 711 346 711 q 654 650 597 711 q 711 481 711 589 l 711 0 l 600 0 l 600 421 q 552 523 600 488 q 415 558 504 558 q 274 522 324 558 q 224 421 224 486 l 224 0 l 111 0 z "},"i":{"ha":333,"x_min":71,"x_max":263,"o":"m 71 797 l 71 989 l 263 989 l 263 797 l 71 797 m 111 0 l 111 694 l 222 694 l 222 0 l 111 0 z "},"j":{"ha":333,"x_min":-54,"x_max":267,"o":"m 75 797 l 75 989 l 267 989 l 267 797 l 75 797 m 24 -279 q -54 -275 -31 -279 l -54 -122 l 26 -122 q 94 -106 78 -122 q 111 -37 111 -89 l 111 694 l 222 694 l 222 -79 q 24 -279 222 -279 z "},"k":{"ha":667,"x_min":111,"x_max":664,"o":"m 111 0 l 111 972 l 222 972 l 222 440 l 289 440 l 289 475 l 499 694 l 640 694 l 363 397 l 363 363 l 664 0 l 519 0 l 289 285 l 289 319 l 222 319 l 222 0 l 111 0 z "},"l":{"ha":333,"x_min":111,"x_max":222,"o":"m 111 0 l 111 972 l 222 972 l 222 0 l 111 0 z "},"m":{"ha":1201,"x_min":111,"x_max":1097,"o":"m 111 0 l 111 694 l 213 694 l 213 585 l 268 585 q 458 711 335 711 q 638 585 596 711 l 692 585 q 878 711 760 711 q 1039 649 981 711 q 1097 481 1097 588 l 1097 0 l 986 0 l 986 421 q 947 525 986 492 q 822 558 907 558 q 660 421 660 558 l 660 0 l 549 0 l 549 421 q 508 525 549 492 q 382 558 468 558 q 222 421 222 558 l 222 0 l 111 0 z "},"n":{"ha":806,"x_min":111,"x_max":701,"o":"m 111 0 l 111 694 l 213 694 l 213 585 l 268 585 q 358 678 300 644 q 486 711 417 711 q 644 650 588 711 q 701 481 701 589 l 701 0 l 590 0 l 590 421 q 410 558 590 558 q 272 522 322 558 q 222 421 222 485 l 222 0 l 111 0 z "},"o":{"ha":825,"x_min":67,"x_max":758,"o":"m 664 83 q 617 33 664 83 q 413 -17 569 -17 q 161 83 256 -17 q 67 347 67 182 q 161 612 67 513 q 413 711 256 711 q 664 612 569 711 q 758 347 758 513 q 664 83 758 182 m 178 347 q 178 236 178 347 q 413 125 178 125 q 647 347 647 125 q 413 569 647 569 q 178 347 178 569 z "},"p":{"ha":856,"x_min":111,"x_max":786,"o":"m 111 -278 l 111 694 l 222 694 l 222 585 l 279 585 q 489 711 347 711 q 707 614 628 711 q 786 347 786 517 q 707 81 786 178 q 489 -17 628 -17 q 279 107 346 -17 l 222 107 l 222 -278 l 111 -278 m 446 125 q 624 179 567 125 q 682 347 682 233 q 624 515 682 461 q 446 569 567 569 q 288 522 351 569 q 224 403 224 474 l 224 292 q 288 173 224 221 q 446 125 351 125 z "},"q":{"ha":853,"x_min":69,"x_max":744,"o":"m 744 -278 l 633 -278 l 633 107 l 576 107 q 367 -17 510 -17 q 149 81 228 -17 q 69 347 69 178 q 149 614 69 517 q 367 711 228 711 q 576 585 508 711 l 633 585 l 633 694 l 744 694 l 744 -278 m 410 125 q 568 173 504 125 q 632 292 632 221 l 632 403 q 568 522 632 474 q 410 569 504 569 q 231 515 289 569 q 174 347 174 461 q 231 179 174 233 q 410 125 289 125 z "},"r":{"ha":517,"x_min":111,"x_max":478,"o":"m 111 0 l 111 694 l 214 694 l 214 585 l 269 585 q 476 711 333 703 l 478 711 l 478 544 l 410 544 q 222 392 222 544 l 222 0 l 111 0 z "},"s":{"ha":694,"x_min":60,"x_max":629,"o":"m 364 -17 q 148 50 228 -17 q 60 238 68 117 l 171 238 q 364 121 183 121 q 525 194 525 121 q 499 242 525 225 q 388 279 472 258 l 292 303 q 126 375 174 332 q 78 494 78 418 q 155 649 78 586 q 346 711 232 711 q 540 649 464 711 q 624 482 615 586 l 513 482 q 346 574 500 574 q 227 553 272 574 q 182 497 182 532 q 206 456 182 469 q 317 421 231 442 l 413 397 q 580 322 531 368 q 629 194 629 275 q 553 44 629 104 q 364 -17 478 -17 z "},"t":{"ha":481,"x_min":43,"x_max":419,"o":"m 356 -11 q 154 189 154 -11 l 154 542 l 43 542 l 43 694 l 154 694 l 154 869 l 265 869 l 265 694 l 419 694 l 419 542 l 265 542 l 265 225 q 283 163 265 179 q 346 146 300 146 l 419 146 l 419 -7 q 356 -11 386 -11 z "},"u":{"ha":806,"x_min":104,"x_max":694,"o":"m 694 694 l 694 0 l 593 0 l 593 110 l 538 110 q 447 17 506 50 q 319 -17 389 -17 q 161 44 218 -17 q 104 214 104 106 l 104 694 l 215 694 l 215 274 q 396 136 215 136 q 533 173 483 136 q 583 274 583 210 l 583 694 l 694 694 z "},"v":{"ha":714,"x_min":33,"x_max":681,"o":"m 271 0 l 33 694 l 161 694 l 324 188 l 324 153 l 390 153 l 390 188 l 553 694 l 681 694 l 443 0 l 271 0 z "},"w":{"ha":1128,"x_min":35,"x_max":1093,"o":"m 236 0 l 35 694 l 163 694 l 292 188 l 292 153 l 358 153 l 358 188 l 469 694 l 658 694 l 769 188 l 769 153 l 836 153 l 836 188 l 965 694 l 1093 694 l 892 0 l 714 0 l 600 510 l 600 542 l 528 542 l 528 510 l 414 0 l 236 0 z "},"x":{"ha":721,"x_min":24,"x_max":697,"o":"m 24 0 l 265 336 l 265 371 l 38 694 l 169 694 l 326 469 l 326 435 l 394 435 l 394 469 l 551 694 l 683 694 l 456 371 l 456 336 l 697 0 l 565 0 l 394 236 l 394 274 l 326 274 l 326 236 l 156 0 l 24 0 z "},"y":{"ha":726,"x_min":25,"x_max":696,"o":"m 215 -278 l 310 -28 l 25 694 l 153 694 l 333 201 l 333 167 l 403 167 l 403 201 l 568 694 l 696 694 l 343 -278 l 215 -278 z "},"z":{"ha":696,"x_min":69,"x_max":631,"o":"m 69 0 l 69 122 l 443 517 l 443 572 l 72 572 l 72 694 l 622 694 l 622 572 l 249 178 l 249 122 l 631 122 l 631 0 l 69 0 z "}," ":{"ha":347,"x_min":0,"x_max":0,"o":""},"’":{"ha":346,"x_min":64,"x_max":254,"o":"m 168 615 l 168 782 l 64 782 l 64 972 l 254 972 l 254 615 l 168 615 z "}}}
